<svg xmlns="http://www.w3.org/2000/svg" width="26" height="26" viewBox="0 0 26 26">
  <defs>
    <style>
      .cls-1 {
        fill: none;
      }

      .cls-2 {
        fill: #fff;
        fill-rule: evenodd;
      }
    </style>
  </defs>
  <g id="avatar" transform="translate(-1286 -30)">
    <path id="bg" class="cls-1" d="M13,0A13,13,0,1,1,0,13,13,13,0,0,1,13,0Z" transform="translate(1286 30)"/>
    <path id="Avatar_19371" class="cls-2" d="M237.236,85.627a7.034,7.034,0,0,1-9.647,0A6.881,6.881,0,0,0,224,91.518h0v6.424A3.059,3.059,0,0,0,227.059,101h13.765V91.671A6.881,6.881,0,0,0,237.236,85.627Zm.682-5.121A5.506,5.506,0,1,1,232.412,75,5.506,5.506,0,0,1,237.918,80.506Z" transform="translate(1066.333 -45)"/>
  </g>
</svg>
