<svg xmlns="http://www.w3.org/2000/svg" width="359" height="63" viewBox="0 0 359 63">
  <defs>
    <style>
      .cls-1 {
        fill: #ff7900;
      }

      .cls-2, .cls-3 {
        fill: #fff;
      }

      .cls-3 {
        font-size: 29px;
        font-family: HelveticaNeue-Bold, Helvetica Neue;
        font-weight: 700;
        letter-spacing: -0.028em;
      }
    </style>
  </defs>
  <g id="Logo_ODCVT" data-name="Logo ODCVT" transform="translate(-50 -8)">
    <g id="Master_Logo_RGB" transform="translate(50 15)">
      <rect id="Rectangle_78" data-name="Rectangle 78" class="cls-1" width="50" height="50"/>
      <path id="Path_61" data-name="Path 61" class="cls-2" d="M90.849,225.667a4.1,4.1,0,0,1-2.293.691,1.929,1.929,0,0,1-2.066-2.021c0-1.558,1.432-2.383,4.383-2.716v-.386c0-.506-.385-.8-1.094-.8a2.074,2.074,0,0,0-1.7.8l-1.235-.706a3.4,3.4,0,0,1,2.967-1.358c1.813,0,2.822.785,2.822,2.064v5.045H91.016ZM88.282,224.2a.84.84,0,0,0,.826.9,2.552,2.552,0,0,0,1.7-.734v-1.647c-1.711.217-2.522.656-2.522,1.48Z" transform="translate(-71.234 -180.51)"/>
      <path id="Path_62" data-name="Path 62" class="cls-2" d="M129.54,219.464l1.515-.21.166.826a3.9,3.9,0,0,1,2.39-.96,1.969,1.969,0,0,1,2.17,2.265v4.845h-1.829V221.7c0-.852-.222-1.235-.882-1.235a2.7,2.7,0,0,0-1.713.773v4.992H129.54Z" transform="translate(-106.69 -180.469)"/>
      <path id="Path_63" data-name="Path 63" class="cls-2" d="M218.4,226.363c-2.051,0-3.276-1.318-3.276-3.607s1.235-3.635,3.246-3.635,3.2,1.279,3.2,3.542c0,.12-.014.24-.014.353h-4.634c.014,1.318.561,1.983,1.639,1.983a1.784,1.784,0,0,0,1.579-.882l1.342.744A3.352,3.352,0,0,1,218.4,226.363Zm1.372-4.526a1.324,1.324,0,0,0-1.4-1.478c-.826,0-1.342.529-1.411,1.478Z" transform="translate(-177.175 -180.469)"/>
      <path id="Path_64" data-name="Path 64" class="cls-2" d="M18.813,226.34a3.677,3.677,0,0,1,0-7.34,3.677,3.677,0,0,1,0,7.34Zm0-5.8c-1.367,0-1.621,1.235-1.621,2.117s.254,2.126,1.621,2.126,1.621-1.235,1.621-2.126S20.18,220.543,18.813,220.543Z" transform="translate(-12.659 -180.37)"/>
      <path id="Path_65" data-name="Path 65" class="cls-2" d="M61.53,219.331h1.741v.818a2.7,2.7,0,0,1,1.917-.961,1.517,1.517,0,0,1,.236.012v1.718h-.088c-.8,0-1.669.123-1.94.743v4.629H61.53Z" transform="translate(-50.677 -180.524)"/>
      <path id="Path_66" data-name="Path 66" class="cls-2" d="M175.293,224.776c1.39-.011,1.506-1.423,1.506-2.348,0-1.087-.529-1.972-1.519-1.972-.658,0-1.392.48-1.392,2.048C173.889,223.365,173.949,224.785,175.293,224.776Zm3.267-5.489v6.588c0,1.164-.088,3.078-3.406,3.1-1.367,0-2.635-.538-2.889-1.734l1.808-.291c.076.342.284.684,1.309.684.951,0,1.411-.455,1.411-1.543v-.81l-.025-.025a1.83,1.83,0,0,1-1.8,1.012c-1.621,0-2.9-1.125-2.9-3.478,0-2.327,1.318-3.628,2.8-3.63,1.388,0,1.9.63,2.021.963h-.021l.15-.833Z" transform="translate(-141.718 -180.502)"/>
      <path id="Path_67" data-name="Path 67" class="cls-2" d="M247.25,205.357h-.72v1.993h-.381v-1.993h-.72v-.307h1.82Zm3,1.993h-.379v-1.921h-.012l-.753,1.921h-.24l-.753-1.921H248.1v1.921h-.379v-2.293h.586l.686,1.746.676-1.746h.58Z" transform="translate(-202.138 -168.881)"/>
    </g>
    <text id="Orange_Digital_Center_Virtual_Tour" data-name="Orange Digital Center
Virtual Tour" class="cls-3" transform="translate(125 36)"><tspan x="0" y="0">Orange Digital Center</tspan><tspan x="0" y="29">Virtual Tour</tspan></text>
  </g>
</svg>
