<svg id="question" xmlns="http://www.w3.org/2000/svg" width="110" height="30" viewBox="0 0 110 30">
  <defs>
    <style>
      .cls-1, .cls-2, .cls-3 {
        fill: #fff;
      }

      .cls-1 {
        opacity: 0;
      }

      .cls-2 {
        font-size: 14px;
        font-family: HelveticaNeue-Bold, Helvetica Neue;
        font-weight: 700;
        letter-spacing: -0.006em;
      }

      .cls-3 {
        fill-rule: evenodd;
      }
    </style>
  </defs>
  <rect id="Rectangle" width="110" height="30" rx="15"/>
  <g id="Label" transform="translate(64 5)">
    <rect id="Rectangle-2" data-name="Rectangle" class="cls-1" width="74" height="20" transform="translate(-33)"/>
    <text id="Label-2" data-name="Label" class="cls-2" transform="translate(-31 14)"><tspan x="0" y="0">Questions</tspan></text>
  </g>
  <path id="assistance_19371" class="cls-3" d="M85,75A10,10,0,1,0,95,85,10,10,0,0,0,85,75Zm.725,16.015a1.274,1.274,0,0,1-.872.336,1.32,1.32,0,0,1-.893-.331,1.161,1.161,0,0,1-.382-.927,1.194,1.194,0,0,1,.369-.889,1.246,1.246,0,0,1,.906-.361,1.232,1.232,0,0,1,1.25,1.25A1.17,1.17,0,0,1,85.725,91.015Zm3.132-7.766a3.817,3.817,0,0,1-.688.927q-.4.39-1.43,1.313a5.841,5.841,0,0,0-.457.457,1.863,1.863,0,0,0-.256.36,1.767,1.767,0,0,0-.13.327q-.046.164-.138.575a.933.933,0,0,1-1,.872,1.02,1.02,0,0,1-.734-.285,1.12,1.12,0,0,1-.3-.847,3.121,3.121,0,0,1,.218-1.22,3.09,3.09,0,0,1,.579-.906,13.243,13.243,0,0,1,.973-.927q.536-.469.776-.709a2.4,2.4,0,0,0,.4-.533,1.287,1.287,0,0,0,.164-.637,1.482,1.482,0,0,0-.5-1.132,1.821,1.821,0,0,0-1.287-.461,1.781,1.781,0,0,0-1.359.465,3.712,3.712,0,0,0-.738,1.371q-.285.948-1.082.948a1.064,1.064,0,0,1-.793-.331,1.013,1.013,0,0,1-.323-.717,3.032,3.032,0,0,1,.512-1.614,3.938,3.938,0,0,1,1.493-1.354,4.7,4.7,0,0,1,2.289-.537A4.89,4.89,0,0,1,87.2,79.1a3.484,3.484,0,0,1,1.438,1.22A2.992,2.992,0,0,1,89.146,82a2.592,2.592,0,0,1-.289,1.25Z" transform="translate(-67 -70)"/>
</svg>
